<svg preserveAspectRatio="none" width="100%" height="100%" overflow="visible" style="display: block;" viewBox="0 0 470 328" fill="none" xmlns="http://www.w3.org/2000/svg">
<g id="2030">
<path id="Vector" d="M414.929 328C403.59 328 393.804 321.455 385.571 308.365C377.337 294.977 370.993 276.085 366.539 251.69C362.219 227.294 360.06 198.139 360.06 164.223C360.06 130.307 362.219 101.152 366.539 76.7565C370.993 52.0635 377.337 33.1719 385.571 20.0816C393.939 6.69388 403.725 0 414.929 0C426.402 0 436.188 6.69388 444.287 20.0816C452.52 33.1719 458.864 52.0635 463.319 76.7565C467.773 101.152 470 130.307 470 164.223C470 198.139 467.773 227.294 463.319 251.69C458.864 276.085 452.52 294.977 444.287 308.365C436.188 321.455 426.402 328 414.929 328ZM414.929 289.176C425.862 289.176 434.366 278.168 440.44 256.152C446.514 234.137 449.551 203.494 449.551 164.223C449.551 124.655 446.514 93.863 440.44 71.8476C434.366 49.8322 425.862 38.8245 414.929 38.8245C404.13 38.8245 395.627 49.8322 389.418 71.8476C383.343 93.863 380.306 124.655 380.306 164.223C380.306 203.494 383.343 234.137 389.418 256.152C395.627 278.168 404.13 289.176 414.929 289.176Z" fill="var(--fill-0, white)"/>
<path id="Vector_2" d="M291.807 328C276.284 328 264.001 319.67 254.957 303.01C246.049 286.052 240.852 262.103 239.367 231.162L259.007 225.807C259.682 245.442 262.921 261.061 268.725 272.664C274.664 283.969 282.358 289.622 291.807 289.622C300.85 289.622 308.072 284.415 313.471 274.003C319.005 263.293 321.772 249.459 321.772 232.501C321.772 214.65 319.14 200.965 313.876 191.445C308.747 181.925 301.188 177.165 291.199 177.165H272.572V140.571H290.997C299.096 140.571 305.507 135.811 310.231 126.291C315.091 116.473 317.52 103.532 317.52 87.4667C317.52 72.2939 315.226 60.3936 310.636 51.766C306.047 42.8408 299.77 38.3782 291.807 38.3782C282.898 38.3782 275.744 43.8821 270.345 54.8898C265.081 65.8975 261.841 81.2191 260.626 100.854L240.784 95.9456C242.674 65.3025 248.073 41.6508 256.982 24.9905C266.026 8.33016 277.904 0 292.617 0C306.519 0 317.453 7.5864 325.417 22.7592C333.515 37.932 337.565 58.7574 337.565 85.2354C337.565 101.003 335.675 115.135 331.896 127.63C328.251 140.125 323.392 149.199 317.318 154.852C324.877 159.314 330.816 168.388 335.135 182.073C339.589 195.461 341.816 212.122 341.816 232.054C341.816 251.095 339.724 267.904 335.54 282.482C331.356 296.762 325.484 307.918 317.925 315.951C310.501 323.984 301.795 328 291.807 328Z" fill="var(--fill-0, white)"/>
<path id="Vector_3" d="M168.367 328C157.029 328 147.243 321.455 139.009 308.365C130.775 294.977 124.431 276.085 119.977 251.69C115.658 227.294 113.498 198.139 113.498 164.223C113.498 130.307 115.658 101.152 119.977 76.7565C124.431 52.0635 130.775 33.1719 139.009 20.0816C147.378 6.69388 157.164 0 168.367 0C179.84 0 189.626 6.69388 197.725 20.0816C205.959 33.1719 212.303 52.0635 216.757 76.7565C221.211 101.152 223.439 130.307 223.439 164.223C223.439 198.139 221.211 227.294 216.757 251.69C212.303 276.085 205.959 294.977 197.725 308.365C189.626 321.455 179.84 328 168.367 328ZM168.367 289.176C179.3 289.176 187.804 278.168 193.878 256.152C199.952 234.137 202.989 203.494 202.989 164.223C202.989 124.655 199.952 93.863 193.878 71.8476C187.804 49.8322 179.3 38.8245 168.367 38.8245C157.569 38.8245 149.065 49.8322 142.856 71.8476C136.782 93.863 133.745 124.655 133.745 164.223C133.745 203.494 136.782 234.137 142.856 256.152C149.065 278.168 157.569 289.176 168.367 289.176Z" fill="var(--fill-0, white)"/>
<path id="Vector_4" d="M1.41728 321.306V291.407C1.41728 266.416 3.77942 244.252 8.5037 224.914C13.228 205.576 21.0568 190.106 31.9901 178.503L53.2493 155.298C60.5382 147.563 65.8699 138.638 69.2444 128.522C72.7538 118.11 74.5086 105.615 74.5086 91.0367C74.5086 75.2689 72.2139 62.7737 67.6246 53.551C63.1703 44.3283 56.8938 39.717 48.795 39.717C39.8864 39.717 32.9349 45.6671 27.9407 57.5674C23.0815 69.1701 20.2469 85.9791 19.437 107.995L0 103.978C0.809876 82.5578 3.2395 64.1125 7.28888 48.6422C11.3383 33.1719 16.8724 21.2717 23.8913 12.9415C30.9103 4.31383 39.2115 0 48.795 0C58.1086 0 66.2073 3.71882 73.0913 11.1565C79.9752 18.5941 85.3069 29.1556 89.0863 42.8408C92.8658 56.5261 94.7555 72.5914 94.7555 91.0367C94.7555 111.862 92.3933 130.159 87.6691 145.927C83.0798 161.397 75.251 174.933 64.1827 186.536L42.316 210.188C34.4872 218.22 29.088 228.484 26.1185 240.98C23.149 253.475 21.6642 269.094 21.6642 287.837L14.5778 282.928H98.3999V321.306H1.41728Z" fill="var(--fill-0, white)"/>
</g>
</svg>
