<svg preserveAspectRatio="none" width="100%" height="100%" overflow="visible" style="display: block;" viewBox="0 0 1723.35 296.022" fill="none" xmlns="http://www.w3.org/2000/svg">
<g id="systems design engineering">
<path id="Vector" d="M1688.34 296.022C1670.64 296.022 1659.48 281.303 1658.45 244.668H1676.15C1677.18 260.369 1682.18 267.892 1688.98 267.892C1698.08 267.892 1705.39 255.789 1705.39 225.369V203.781H1705.27C1702.06 219.809 1693.59 230.603 1684.62 230.603C1666.53 230.603 1655.12 201.491 1655.12 142.614C1655.12 83.4095 1669.74 54.625 1684.87 54.625C1695 54.625 1702.44 67.3817 1705.27 80.7927H1705.39L1705.91 58.5501H1723.35L1722.97 100.418V223.08C1722.97 277.705 1706.93 296.022 1688.34 296.022ZM1689.49 199.202C1700.01 199.202 1706.29 179.576 1706.29 142.614C1706.29 105.652 1700.01 86.0262 1689.49 86.0262C1678.97 86.0262 1672.82 105.652 1672.82 142.614C1672.82 179.576 1678.97 199.202 1689.49 199.202Z" fill="var(--fill-0, white)"/>
<path id="Vector_2" d="M1579.42 233.547V87.0075L1579.17 58.5501H1596.74L1597.12 82.7553H1597.51C1600.84 67.3817 1608.54 54.625 1618.28 54.625C1632.91 54.625 1642.65 77.1946 1642.65 118.082V233.547H1624.95V125.278C1624.95 100.746 1620.34 87.6617 1612.51 87.6617C1602.89 87.6617 1597.12 105.979 1597.12 135.418V233.547H1579.42Z" fill="var(--fill-0, white)"/>
<path id="Vector_3" d="M1545.23 233.547V58.5502H1562.8V233.547H1545.23ZM1544.97 37.289V0H1563.18V37.289H1544.97Z" fill="var(--fill-0, white)"/>
<path id="Vector_4" d="M1493.87 233.546V85.3718L1493.75 58.5499H1511.32L1511.57 86.026H1511.96C1513.75 70.9796 1520.17 54.9518 1530.17 54.9518H1534.28V94.2034H1527.61C1517.35 94.2034 1511.57 111.539 1511.57 146.212V233.546H1493.87Z" fill="var(--fill-0, white)"/>
<path id="Vector_5" d="M1448.11 237.472C1426.05 237.472 1414.38 206.398 1414.38 145.885C1414.38 85.0449 1428.49 54.625 1448.5 54.625C1469.79 54.625 1480.82 85.6991 1480.82 147.847V155.044H1431.82C1432.59 191.351 1438.11 207.706 1448.37 207.706C1455.68 207.706 1461.07 197.566 1462.35 179.249H1479.79C1478.25 216.538 1464.4 237.472 1448.11 237.472ZM1463.37 127.24C1462.22 96.4933 1456.96 83.7365 1448.11 83.7365C1439.39 83.7365 1433.62 97.1475 1432.08 127.24H1463.37Z" fill="var(--fill-0, white)"/>
<path id="Vector_6" d="M1372.21 237.472C1350.15 237.472 1338.48 206.398 1338.48 145.885C1338.48 85.0449 1352.58 54.625 1372.59 54.625C1393.88 54.625 1404.91 85.6991 1404.91 147.847V155.044H1355.92C1356.69 191.351 1362.2 207.706 1372.46 207.706C1379.78 207.706 1385.16 197.566 1386.44 179.249H1403.89C1402.35 216.538 1388.5 237.472 1372.21 237.472ZM1387.47 127.24C1386.32 96.4933 1381.06 83.7365 1372.21 83.7365C1363.49 83.7365 1357.71 97.1475 1356.18 127.24H1387.47Z" fill="var(--fill-0, white)"/>
<path id="Vector_7" d="M1262.78 233.547V87.0075L1262.52 58.5501H1280.1L1280.48 82.7553H1280.87C1284.2 67.3817 1291.9 54.625 1301.64 54.625C1316.27 54.625 1326.01 77.1946 1326.01 118.082V233.547H1308.31V125.278C1308.31 100.746 1303.7 87.6617 1295.87 87.6617C1286.25 87.6617 1280.48 105.979 1280.48 135.418V233.547H1262.78Z" fill="var(--fill-0, white)"/>
<path id="Vector_8" d="M1228.59 233.547V58.5502H1246.16V233.547H1228.59ZM1228.33 37.289V0H1246.54V37.289H1228.33Z" fill="var(--fill-0, white)"/>
<path id="Vector_9" d="M1177.43 296.022C1159.73 296.022 1148.57 281.303 1147.54 244.668H1165.24C1166.27 260.369 1171.27 267.892 1178.07 267.892C1187.17 267.892 1194.49 255.789 1194.49 225.369V203.781H1194.36C1191.15 219.809 1182.69 230.603 1173.71 230.603C1155.62 230.603 1144.21 201.491 1144.21 142.614C1144.21 83.4095 1158.83 54.625 1173.96 54.625C1184.1 54.625 1191.54 67.3817 1194.36 80.7927H1194.49L1195 58.5501H1212.44L1212.06 100.418V223.08C1212.06 277.705 1196.02 296.022 1177.43 296.022ZM1178.58 199.202C1189.1 199.202 1195.38 179.576 1195.38 142.614C1195.38 105.652 1189.1 86.0262 1178.58 86.0262C1168.06 86.0262 1161.91 105.652 1161.91 142.614C1161.91 179.576 1168.06 199.202 1178.58 199.202Z" fill="var(--fill-0, white)"/>
<path id="Vector_10" d="M1068.51 233.547V87.0075L1068.26 58.5501H1085.83L1086.21 82.7553H1086.6C1089.93 67.3817 1097.63 54.625 1107.38 54.625C1122 54.625 1131.75 77.1946 1131.75 118.082V233.547H1114.05V125.278C1114.05 100.746 1109.43 87.6617 1101.6 87.6617C1091.98 87.6617 1086.21 105.979 1086.21 135.418V233.547H1068.51Z" fill="var(--fill-0, white)"/>
<path id="Vector_11" d="M1022.75 237.472C1000.69 237.472 989.019 206.398 989.019 145.885C989.019 85.0449 1003.13 54.625 1023.14 54.625C1044.43 54.625 1055.46 85.6991 1055.46 147.847V155.044H1006.46C1007.23 191.351 1012.75 207.706 1023.01 207.706C1030.32 207.706 1035.7 197.566 1036.99 179.249H1054.43C1052.89 216.538 1039.04 237.472 1022.75 237.472ZM1038.01 127.24C1036.86 96.4933 1031.6 83.7365 1022.75 83.7365C1014.03 83.7365 1008.26 97.1475 1006.72 127.24H1038.01Z" fill="var(--fill-0, white)"/>
<path id="Vector_12" d="M885.894 233.547V87.0075L885.637 58.5501H903.209L903.594 82.7553H903.978C907.313 67.3817 915.009 54.625 924.756 54.625C939.378 54.625 949.126 77.1946 949.126 118.082V233.547H931.426V125.278C931.426 100.746 926.808 87.6617 918.985 87.6617C909.365 87.6617 903.594 105.979 903.594 135.418V233.547H885.894Z" fill="var(--fill-0, white)"/>
<path id="Vector_13" d="M834.733 296.022C817.034 296.022 805.875 281.303 804.849 244.668H822.549C823.575 260.369 828.577 267.892 835.375 267.892C844.481 267.892 851.792 255.789 851.792 225.369V203.781H851.664C848.457 219.809 839.992 230.603 831.014 230.603C812.929 230.603 801.514 201.491 801.514 142.614C801.514 83.4095 816.136 54.625 831.27 54.625C841.403 54.625 848.842 67.3817 851.664 80.7927H851.792L852.305 58.5501H869.748L869.363 100.418V223.08C869.363 277.705 853.331 296.022 834.733 296.022ZM835.888 199.202C846.405 199.202 852.69 179.576 852.69 142.614C852.69 105.652 846.405 86.0262 835.888 86.0262C825.37 86.0262 819.214 105.652 819.214 142.614C819.214 179.576 825.37 199.202 835.888 199.202Z" fill="var(--fill-0, white)"/>
<path id="Vector_14" d="M770.911 233.547V58.5502H788.483V233.547H770.911ZM770.655 37.289V0H788.868V37.289H770.655Z" fill="var(--fill-0, white)"/>
<path id="Vector_15" d="M727.928 237.472C709.073 237.472 698.3 218.827 697.787 180.557H715.486C715.999 199.529 720.873 209.014 728.312 209.014C736.264 209.014 741.01 200.51 741.01 186.772C741.01 173.688 737.547 169.109 729.98 164.856L723.823 161.585C707.406 152.427 699.069 141.96 699.069 108.596C699.069 76.5404 711.51 54.625 728.056 54.625C744.473 54.625 756.529 70.9798 757.042 107.287H739.471C739.086 90.6056 733.699 83.0824 727.671 83.0824C721.643 83.0824 716.384 90.6056 716.384 103.689C716.384 116.119 719.847 120.371 726.773 124.296L732.801 127.567C748.834 136.399 758.325 146.539 758.325 181.538C758.325 215.883 745.884 237.472 727.928 237.472Z" fill="var(--fill-0, white)"/>
<path id="Vector_16" d="M656.385 237.472C634.324 237.472 622.652 206.398 622.652 145.885C622.652 85.0449 636.761 54.625 656.769 54.625C678.061 54.625 689.091 85.6991 689.091 147.847V155.044H640.096C640.865 191.351 646.38 207.706 656.641 207.706C663.952 207.706 669.339 197.566 670.622 179.249H688.065C686.526 216.538 672.674 237.472 656.385 237.472ZM671.648 127.24C670.493 96.4933 665.235 83.7365 656.385 83.7365C647.663 83.7365 641.891 97.1475 640.352 127.24H671.648Z" fill="var(--fill-0, white)"/>
<path id="Vector_17" d="M571.116 237.472C552.775 237.472 541.617 205.416 541.617 145.885C541.617 82.7553 554.956 54.6251 571.886 54.6251C580.736 54.6251 588.56 66.7276 591.766 78.5031H591.894V0H609.466V191.024L609.851 233.547H592.407L591.894 210.65H591.766C588.944 225.042 580.864 237.472 571.116 237.472ZM576.118 204.762C586.764 204.762 592.536 182.847 592.536 145.885C592.536 108.596 586.636 87.3347 576.118 87.3347C565.473 87.3347 559.316 108.923 559.316 145.885C559.316 183.174 565.473 204.762 576.118 204.762Z" fill="var(--fill-0, white)"/>
<path id="Vector_18" d="M474.665 237.472C455.811 237.472 445.037 218.827 444.524 180.557H462.224C462.737 199.529 467.611 209.014 475.05 209.014C483.002 209.014 487.748 200.51 487.748 186.772C487.748 173.688 484.285 169.109 476.717 164.856L470.561 161.585C454.144 152.427 445.807 141.96 445.807 108.596C445.807 76.5404 458.248 54.625 474.793 54.625C491.211 54.625 503.267 70.9798 503.78 107.287H486.208C485.824 90.6056 480.437 83.0824 474.409 83.0824C468.38 83.0824 463.122 90.6056 463.122 103.689C463.122 116.119 466.585 120.371 473.511 124.296L479.539 127.567C495.571 136.399 505.063 146.539 505.063 181.538C505.063 215.883 492.621 237.472 474.665 237.472Z" fill="var(--fill-0, white)"/>
<path id="Vector_19" d="M331.147 233.547V85.372L331.019 58.5501H348.462L348.847 80.1385H349.231C351.925 65.0921 360.39 54.625 367.829 54.625C378.218 54.625 385.016 66.7275 387.837 84.0636H388.094C392.198 64.4379 400.279 54.625 409.77 54.625C424.007 54.625 432.728 76.5404 432.728 116.119V233.547H415.157V121.68C415.157 94.2036 409.129 87.6617 403.87 87.6617C398.098 87.6617 390.787 97.4746 390.787 130.838V233.547H373.216V121.68C373.216 94.2036 367.188 87.6617 361.929 87.6617C356.157 87.6617 348.847 97.4746 348.847 130.838V233.547H331.147Z" fill="var(--fill-0, white)"/>
<path id="Vector_20" d="M285.384 237.472C263.324 237.472 251.652 206.398 251.652 145.885C251.652 85.0449 265.761 54.625 285.769 54.625C307.06 54.625 318.091 85.6991 318.091 147.847V155.044H269.095C269.865 191.351 275.38 207.706 285.641 207.706C292.952 207.706 298.339 197.566 299.621 179.249H317.064C315.525 216.538 301.673 237.472 285.384 237.472ZM300.647 127.24C299.493 96.4933 294.234 83.7365 285.384 83.7365C276.663 83.7365 270.891 97.1475 269.352 127.24H300.647Z" fill="var(--fill-0, white)"/>
<path id="Vector_21" d="M231.565 233.547C218.996 233.547 214.122 224.061 214.122 192.332V87.6617H204.503V58.5502H214.122V16.0277H231.694V58.5502H244.006V87.6617H231.694V187.426C231.694 197.893 233.361 202.8 236.952 202.8H243.237V233.547H231.565Z" fill="var(--fill-0, white)"/>
<path id="Vector_22" d="M167.544 237.472C148.69 237.472 137.916 218.827 137.403 180.557H155.103C155.616 199.529 160.49 209.014 167.929 209.014C175.881 209.014 180.626 200.51 180.626 186.772C180.626 173.688 177.163 169.109 169.596 164.856L163.44 161.585C147.022 152.427 138.686 141.96 138.686 108.596C138.686 76.5404 151.127 54.625 167.672 54.625C184.089 54.625 196.146 70.9798 196.659 107.287H179.087C178.702 90.6056 173.316 83.0824 167.287 83.0824C161.259 83.0824 156.001 90.6056 156.001 103.689C156.001 116.119 159.464 120.371 166.39 124.296L172.418 127.567C188.45 136.399 197.941 146.539 197.941 181.538C197.941 215.883 185.5 237.472 167.544 237.472Z" fill="var(--fill-0, white)"/>
<path id="Vector_23" d="M70.3483 292.097V261.677H77.6591C85.0981 261.677 87.6633 255.135 89.8437 239.107L90.6133 233.546L63.9353 58.55H82.4047L92.0241 128.221C95.2306 151.772 96.898 167.8 98.8219 191.024H99.3349C101.387 167.146 102.926 152.1 106.004 128.221L115.367 58.55H133.452L105.491 254.154C101.772 279.667 95.4871 292.097 82.6612 292.097H70.3483Z" fill="var(--fill-0, white)"/>
<path id="Vector_24" d="M30.141 237.472C11.2868 237.472 0.513038 218.827 0 180.557H17.6998C18.2128 199.529 23.0867 209.014 30.5257 209.014C38.4778 209.014 43.2234 200.51 43.2234 186.772C43.2234 173.688 39.7604 169.109 32.1931 164.856L26.0367 161.585C9.61946 152.427 1.28259 141.96 1.28259 108.596C1.28259 76.5404 13.7238 54.625 30.2692 54.625C46.6864 54.625 58.7428 70.9798 59.2559 107.287H41.6843C41.2995 90.6056 35.9126 83.0824 29.8844 83.0824C23.8563 83.0824 18.5976 90.6056 18.5976 103.689C18.5976 116.119 22.0606 120.371 28.9866 124.296L35.0148 127.567C51.0473 136.399 60.5385 146.539 60.5385 181.538C60.5385 215.883 48.0973 237.472 30.141 237.472Z" fill="var(--fill-0, white)"/>
</g>
</svg>
