<svg width="1728" height="624" viewBox="0 0 1728 624" fill="none" xmlns="http://www.w3.org/2000/svg">
<path d="M1688.34 295.969C1670.64 295.969 1659.48 281.25 1658.45 244.615H1676.15C1677.18 260.316 1682.18 267.839 1688.98 267.839C1698.08 267.839 1705.39 255.736 1705.39 225.316V203.728H1705.27C1702.06 219.756 1693.59 230.55 1684.62 230.55C1666.53 230.55 1655.12 201.438 1655.12 142.561C1655.12 83.3567 1669.74 54.5723 1684.87 54.5723C1695 54.5723 1702.44 67.329 1705.27 80.74H1705.39L1705.91 58.4974H1723.35L1722.97 100.366V223.027C1722.97 277.652 1706.93 295.969 1688.34 295.969ZM1689.49 199.149C1700.01 199.149 1706.29 179.523 1706.29 142.561C1706.29 105.599 1700.01 85.9735 1689.49 85.9735C1678.97 85.9735 1672.82 105.599 1672.82 142.561C1672.82 179.523 1678.97 199.149 1689.49 199.149Z" fill="black"/>
<path d="M1579.42 233.494V86.9548L1579.17 58.4974H1596.74L1597.12 82.7026H1597.51C1600.84 67.329 1608.54 54.5723 1618.28 54.5723C1632.91 54.5723 1642.65 77.1419 1642.65 118.029V233.494H1624.95V125.225C1624.95 100.693 1620.34 87.609 1612.51 87.609C1602.89 87.609 1597.12 105.926 1597.12 135.365V233.494H1579.42Z" fill="black"/>
<path d="M1545.23 233.494V58.4975H1562.8V233.494H1545.23ZM1544.97 37.2362V-0.0527344H1563.18V37.2362H1544.97Z" fill="black"/>
<path d="M1493.87 233.494V85.3191L1493.75 58.4972H1511.32L1511.57 85.9733H1511.96C1513.75 70.9269 1520.17 54.8992 1530.17 54.8992H1534.28V94.1507H1527.61C1517.35 94.1507 1511.57 111.487 1511.57 146.159V233.494H1493.87Z" fill="black"/>
<path d="M1448.11 237.419C1426.05 237.419 1414.38 206.345 1414.38 145.832C1414.38 84.9922 1428.49 54.5723 1448.5 54.5723C1469.79 54.5723 1480.82 85.6464 1480.82 147.795V154.991H1431.82C1432.59 191.298 1438.11 207.653 1448.37 207.653C1455.68 207.653 1461.07 197.513 1462.35 179.196H1479.79C1478.25 216.485 1464.4 237.419 1448.11 237.419ZM1463.37 127.188C1462.22 96.4406 1456.96 83.6838 1448.11 83.6838C1439.39 83.6838 1433.62 97.0948 1432.08 127.188H1463.37Z" fill="black"/>
<path d="M1372.21 237.419C1350.15 237.419 1338.48 206.345 1338.48 145.832C1338.48 84.9922 1352.58 54.5723 1372.59 54.5723C1393.88 54.5723 1404.91 85.6464 1404.91 147.795V154.991H1355.92C1356.69 191.298 1362.2 207.653 1372.46 207.653C1379.78 207.653 1385.16 197.513 1386.44 179.196H1403.89C1402.35 216.485 1388.5 237.419 1372.21 237.419ZM1387.47 127.188C1386.32 96.4406 1381.06 83.6838 1372.21 83.6838C1363.49 83.6838 1357.71 97.0948 1356.18 127.188H1387.47Z" fill="black"/>
<path d="M1262.78 233.494V86.9548L1262.52 58.4974H1280.1L1280.48 82.7026H1280.87C1284.2 67.329 1291.9 54.5723 1301.64 54.5723C1316.27 54.5723 1326.01 77.1419 1326.01 118.029V233.494H1308.31V125.225C1308.31 100.693 1303.7 87.609 1295.87 87.609C1286.25 87.609 1280.48 105.926 1280.48 135.365V233.494H1262.78Z" fill="black"/>
<path d="M1228.59 233.494V58.4975H1246.16V233.494H1228.59ZM1228.33 37.2362V-0.0527344H1246.54V37.2362H1228.33Z" fill="black"/>
<path d="M1177.43 295.969C1159.73 295.969 1148.57 281.25 1147.54 244.615H1165.24C1166.27 260.316 1171.27 267.839 1178.07 267.839C1187.17 267.839 1194.49 255.736 1194.49 225.316V203.728H1194.36C1191.15 219.756 1182.69 230.55 1173.71 230.55C1155.62 230.55 1144.21 201.438 1144.21 142.561C1144.21 83.3567 1158.83 54.5723 1173.96 54.5723C1184.1 54.5723 1191.54 67.329 1194.36 80.74H1194.49L1195 58.4974H1212.44L1212.06 100.366V223.027C1212.06 277.652 1196.02 295.969 1177.43 295.969ZM1178.58 199.149C1189.1 199.149 1195.38 179.523 1195.38 142.561C1195.38 105.599 1189.1 85.9735 1178.58 85.9735C1168.06 85.9735 1161.91 105.599 1161.91 142.561C1161.91 179.523 1168.06 199.149 1178.58 199.149Z" fill="black"/>
<path d="M1068.51 233.494V86.9548L1068.26 58.4974H1085.83L1086.21 82.7026H1086.6C1089.93 67.329 1097.63 54.5723 1107.38 54.5723C1122 54.5723 1131.75 77.1419 1131.75 118.029V233.494H1114.05V125.225C1114.05 100.693 1109.43 87.609 1101.6 87.609C1091.98 87.609 1086.21 105.926 1086.21 135.365V233.494H1068.51Z" fill="black"/>
<path d="M1022.75 237.419C1000.69 237.419 989.019 206.345 989.019 145.832C989.019 84.9922 1003.13 54.5723 1023.14 54.5723C1044.43 54.5723 1055.46 85.6464 1055.46 147.795V154.991H1006.46C1007.23 191.298 1012.75 207.653 1023.01 207.653C1030.32 207.653 1035.7 197.513 1036.99 179.196H1054.43C1052.89 216.485 1039.04 237.419 1022.75 237.419ZM1038.01 127.188C1036.86 96.4406 1031.6 83.6838 1022.75 83.6838C1014.03 83.6838 1008.26 97.0948 1006.72 127.188H1038.01Z" fill="black"/>
<path d="M885.894 233.494V86.9548L885.637 58.4974H903.209L903.594 82.7026H903.978C907.313 67.329 915.009 54.5723 924.756 54.5723C939.378 54.5723 949.126 77.1419 949.126 118.029V233.494H931.426V125.225C931.426 100.693 926.808 87.609 918.985 87.609C909.365 87.609 903.594 105.926 903.594 135.365V233.494H885.894Z" fill="black"/>
<path d="M834.733 295.969C817.034 295.969 805.875 281.25 804.849 244.615H822.549C823.575 260.316 828.577 267.839 835.375 267.839C844.481 267.839 851.792 255.736 851.792 225.316V203.728H851.664C848.457 219.756 839.992 230.55 831.014 230.55C812.929 230.55 801.514 201.438 801.514 142.561C801.514 83.3567 816.136 54.5723 831.27 54.5723C841.403 54.5723 848.842 67.329 851.664 80.74H851.792L852.305 58.4974H869.748L869.363 100.366V223.027C869.363 277.652 853.331 295.969 834.733 295.969ZM835.888 199.149C846.405 199.149 852.69 179.523 852.69 142.561C852.69 105.599 846.405 85.9735 835.888 85.9735C825.37 85.9735 819.214 105.599 819.214 142.561C819.214 179.523 825.37 199.149 835.888 199.149Z" fill="black"/>
<path d="M770.911 233.494V58.4975H788.483V233.494H770.911ZM770.655 37.2362V-0.0527344H788.868V37.2362H770.655Z" fill="black"/>
<path d="M727.928 237.419C709.073 237.419 698.3 218.775 697.787 180.504H715.486C715.999 199.476 720.873 208.962 728.312 208.962C736.264 208.962 741.01 200.457 741.01 186.719C741.01 173.635 737.547 169.056 729.98 164.804L723.823 161.533C707.406 152.374 699.069 141.907 699.069 108.543C699.069 76.4877 711.51 54.5723 728.056 54.5723C744.473 54.5723 756.529 70.9271 757.042 107.235H739.471C739.086 90.5529 733.699 83.0297 727.671 83.0297C721.643 83.0297 716.384 90.5529 716.384 103.637C716.384 116.066 719.847 120.319 726.773 124.244L732.801 127.515C748.834 136.346 758.325 146.486 758.325 181.486C758.325 215.831 745.884 237.419 727.928 237.419Z" fill="black"/>
<path d="M656.385 237.419C634.324 237.419 622.652 206.345 622.652 145.832C622.652 84.9922 636.761 54.5723 656.77 54.5723C678.061 54.5723 689.091 85.6464 689.091 147.795V154.991H640.096C640.865 191.298 646.38 207.653 656.641 207.653C663.952 207.653 669.339 197.513 670.622 179.196H688.065C686.526 216.485 672.674 237.419 656.385 237.419ZM671.648 127.188C670.493 96.4406 665.235 83.6838 656.385 83.6838C647.663 83.6838 641.891 97.0948 640.352 127.188H671.648Z" fill="black"/>
<path d="M571.116 237.419C552.775 237.419 541.617 205.364 541.617 145.832C541.617 82.7026 554.956 54.5723 571.886 54.5723C580.736 54.5723 588.56 66.6749 591.766 78.4503H591.894V-0.0527344H609.466V190.971L609.851 233.494H592.407L591.894 210.597H591.766C588.944 224.989 580.864 237.419 571.116 237.419ZM576.118 204.709C586.764 204.709 592.536 182.794 592.536 145.832C592.536 108.543 586.636 87.282 576.118 87.282C565.473 87.282 559.316 108.87 559.316 145.832C559.316 183.121 565.473 204.709 576.118 204.709Z" fill="black"/>
<path d="M474.665 237.419C455.811 237.419 445.037 218.775 444.524 180.504H462.224C462.737 199.476 467.611 208.962 475.05 208.962C483.002 208.962 487.748 200.457 487.748 186.719C487.748 173.635 484.285 169.056 476.717 164.804L470.561 161.533C454.144 152.374 445.807 141.907 445.807 108.543C445.807 76.4877 458.248 54.5723 474.793 54.5723C491.211 54.5723 503.267 70.9271 503.78 107.235H486.208C485.824 90.5529 480.437 83.0297 474.409 83.0297C468.38 83.0297 463.122 90.5529 463.122 103.637C463.122 116.066 466.585 120.319 473.511 124.244L479.539 127.515C495.571 136.346 505.063 146.486 505.063 181.486C505.063 215.831 492.621 237.419 474.665 237.419Z" fill="black"/>
<path d="M331.147 233.494V85.3193L331.019 58.4974H348.462L348.847 80.0858H349.231C351.925 65.0394 360.39 54.5723 367.829 54.5723C378.218 54.5723 385.016 66.6748 387.837 84.0109H388.094C392.198 64.3852 400.279 54.5723 409.77 54.5723C424.007 54.5723 432.728 76.4877 432.728 116.066V233.494H415.157V121.627C415.157 94.1509 409.129 87.609 403.87 87.609C398.098 87.609 390.787 97.4219 390.787 130.786V233.494H373.216V121.627C373.216 94.1509 367.188 87.609 361.929 87.609C356.157 87.609 348.847 97.4219 348.847 130.786V233.494H331.147Z" fill="black"/>
<path d="M285.384 237.419C263.324 237.419 251.652 206.345 251.652 145.832C251.652 84.9922 265.761 54.5723 285.769 54.5723C307.06 54.5723 318.09 85.6464 318.09 147.795V154.991H269.095C269.865 191.298 275.38 207.653 285.641 207.653C292.952 207.653 298.339 197.513 299.621 179.196H317.064C315.525 216.485 301.673 237.419 285.384 237.419ZM300.647 127.188C299.493 96.4406 294.234 83.6838 285.384 83.6838C276.663 83.6838 270.891 97.0948 269.352 127.188H300.647Z" fill="black"/>
<path d="M231.565 233.494C218.996 233.494 214.122 224.008 214.122 192.28V87.6089H204.503V58.4973H214.122V15.9749H231.694V58.4973H244.006V87.6089H231.694V187.373C231.694 197.84 233.361 202.747 236.952 202.747H243.237V233.494H231.565Z" fill="black"/>
<path d="M167.544 237.419C148.69 237.419 137.916 218.775 137.403 180.504H155.103C155.616 199.476 160.49 208.962 167.929 208.962C175.881 208.962 180.626 200.457 180.626 186.719C180.626 173.635 177.163 169.056 169.596 164.804L163.44 161.533C147.022 152.374 138.686 141.907 138.686 108.543C138.686 76.4877 151.127 54.5723 167.672 54.5723C184.089 54.5723 196.146 70.9271 196.659 107.235H179.087C178.702 90.5529 173.316 83.0297 167.287 83.0297C161.259 83.0297 156.001 90.5529 156.001 103.637C156.001 116.066 159.464 120.319 166.39 124.244L172.418 127.515C188.45 136.346 197.941 146.486 197.941 181.486C197.941 215.831 185.5 237.419 167.544 237.419Z" fill="black"/>
<path d="M70.3483 292.044V261.624H77.6591C85.0981 261.624 87.6633 255.082 89.8437 239.054L90.6133 233.494L63.9353 58.4973H82.4047L92.0241 128.169C95.2306 151.72 96.898 167.747 98.8219 190.971H99.3349C101.387 167.093 102.926 152.047 106.004 128.169L115.367 58.4973H133.452L105.491 254.101C101.772 279.614 95.4871 292.044 82.6612 292.044H70.3483Z" fill="black"/>
<path d="M30.141 237.419C11.2868 237.419 0.513038 218.775 0 180.504H17.6998C18.2128 199.476 23.0867 208.962 30.5257 208.962C38.4778 208.962 43.2234 200.457 43.2234 186.719C43.2234 173.635 39.7604 169.056 32.1931 164.804L26.0367 161.533C9.61946 152.374 1.28259 141.907 1.28259 108.543C1.28259 76.4877 13.7238 54.5723 30.2692 54.5723C46.6864 54.5723 58.7428 70.9271 59.2559 107.235H41.6843C41.2995 90.5529 35.9126 83.0297 29.8844 83.0297C23.8563 83.0297 18.5976 90.5529 18.5976 103.637C18.5976 116.066 22.0606 120.319 28.9866 124.244L35.0148 127.515C51.0473 136.346 60.5385 146.486 60.5385 181.486C60.5385 215.831 48.0973 237.419 30.141 237.419Z" fill="black"/>
<path d="M414.929 623.969C403.59 623.969 393.804 617.424 385.571 604.334C377.337 590.946 370.993 572.055 366.539 547.659C362.219 523.264 360.06 494.108 360.06 460.192C360.06 426.277 362.219 397.121 366.539 372.726C370.993 348.033 377.337 329.141 385.571 316.051C393.939 302.663 403.725 295.969 414.929 295.969C426.402 295.969 436.188 302.663 444.287 316.051C452.52 329.141 458.864 348.033 463.319 372.726C467.773 397.121 470 426.277 470 460.192C470 494.108 467.773 523.264 463.319 547.659C458.864 572.055 452.52 590.946 444.287 604.334C436.188 617.424 426.402 623.969 414.929 623.969ZM414.929 585.145C425.862 585.145 434.366 574.137 440.44 552.122C446.514 530.106 449.551 499.463 449.551 460.192C449.551 420.624 446.514 389.832 440.44 367.817C434.366 345.801 425.862 334.794 414.929 334.794C404.13 334.794 395.627 345.801 389.418 367.817C383.343 389.832 380.306 420.624 380.306 460.192C380.306 499.463 383.343 530.106 389.418 552.122C395.627 574.137 404.13 585.145 414.929 585.145Z" fill="black"/>
<path d="M291.807 623.969C276.284 623.969 264.001 615.639 254.957 598.979C246.049 582.021 240.852 558.072 239.367 527.131L259.007 521.776C259.682 541.411 262.921 557.03 268.725 568.633C274.664 579.938 282.358 585.591 291.807 585.591C300.85 585.591 308.072 580.385 313.471 569.972C319.005 559.262 321.772 545.428 321.772 528.47C321.772 510.62 319.14 496.934 313.876 487.414C308.747 477.894 301.188 473.134 291.199 473.134H272.572V436.541H290.997C299.096 436.541 305.507 431.781 310.231 422.26C315.091 412.443 317.52 399.501 317.52 383.436C317.52 368.263 315.226 356.363 310.636 347.735C306.047 338.81 299.77 334.347 291.807 334.347C282.898 334.347 275.744 339.851 270.345 350.859C265.081 361.867 261.841 377.188 260.626 396.824L240.784 391.915C242.674 361.272 248.073 337.62 256.982 320.96C266.026 304.299 277.904 295.969 292.617 295.969C306.519 295.969 317.453 303.556 325.417 318.728C333.515 333.901 337.565 354.727 337.565 381.205C337.565 396.972 335.675 411.104 331.896 423.599C328.251 436.094 323.392 445.168 317.318 450.821C324.877 455.284 330.816 464.357 335.135 478.043C339.589 491.43 341.816 508.091 341.816 528.024C341.816 547.064 339.724 563.873 335.54 578.451C331.356 592.731 325.484 603.888 317.925 611.92C310.501 619.953 301.795 623.969 291.807 623.969Z" fill="black"/>
<path d="M168.367 623.969C157.029 623.969 147.243 617.424 139.009 604.334C130.775 590.946 124.431 572.055 119.977 547.659C115.658 523.264 113.498 494.108 113.498 460.192C113.498 426.277 115.658 397.121 119.977 372.726C124.431 348.033 130.775 329.141 139.009 316.051C147.378 302.663 157.164 295.969 168.367 295.969C179.84 295.969 189.626 302.663 197.725 316.051C205.959 329.141 212.303 348.033 216.757 372.726C221.211 397.121 223.438 426.277 223.438 460.192C223.438 494.108 221.211 523.264 216.757 547.659C212.303 572.055 205.959 590.946 197.725 604.334C189.626 617.424 179.84 623.969 168.367 623.969ZM168.367 585.145C179.3 585.145 187.804 574.137 193.878 552.122C199.952 530.106 202.989 499.463 202.989 460.192C202.989 420.624 199.952 389.832 193.878 367.817C187.804 345.801 179.3 334.794 168.367 334.794C157.569 334.794 149.065 345.801 142.856 367.817C136.782 389.832 133.745 420.624 133.745 460.192C133.745 499.463 136.782 530.106 142.856 552.122C149.065 574.137 157.569 585.145 168.367 585.145Z" fill="black"/>
<path d="M1.41728 617.275V587.376C1.41728 562.386 3.77942 540.221 8.5037 520.884C13.228 501.546 21.0568 486.075 31.9901 474.473L53.2493 451.267C60.5382 443.532 65.8699 434.607 69.2444 424.492C72.7538 414.079 74.5086 401.584 74.5086 387.006C74.5086 371.238 72.2139 358.743 67.6246 349.52C63.1703 340.298 56.8938 335.686 48.795 335.686C39.8864 335.686 32.9349 341.636 27.9407 353.537C23.0815 365.139 20.2469 381.948 19.437 403.964L0 399.947C0.809876 378.527 3.2395 360.082 7.28888 344.611C11.3383 329.141 16.8724 317.241 23.8913 308.911C30.9103 300.283 39.2115 295.969 48.795 295.969C58.1086 295.969 66.2074 299.688 73.0913 307.126C79.9752 314.563 85.3069 325.125 89.0863 338.81C92.8658 352.495 94.7555 368.561 94.7555 387.006C94.7555 407.831 92.3933 426.128 87.6691 441.896C83.0798 457.366 75.251 470.903 64.1827 482.505L42.316 506.157C34.4872 514.19 29.088 524.454 26.1185 536.949C23.149 549.444 21.6642 565.063 21.6642 583.806L14.5778 578.897H98.3999V617.275H1.41728Z" fill="black"/>
</svg>