<svg width="553" height="384" viewBox="0 0 553 384" fill="none" xmlns="http://www.w3.org/2000/svg">
<path d="M517.058 384C507.02 384 498.87 377.781 492.61 365.342C486.35 352.904 482.356 335.548 480.629 313.275L494.715 305.03C495.902 319.204 498.439 330.197 502.324 338.007C506.21 346.106 511.121 350.156 517.058 350.156C524.181 350.156 529.524 345.238 533.086 335.403C536.756 325.858 538.591 311.539 538.591 292.447V258.169C536.972 268.872 533.949 277.55 529.524 284.203C525.207 290.856 520.35 294.183 514.953 294.183C507.829 294.183 501.569 289.844 496.172 281.166C490.775 272.199 486.566 259.76 483.544 243.851C480.521 227.941 479.01 209.573 479.01 188.746C479.01 167.629 480.521 149.116 483.544 133.207C486.566 117.297 490.721 105.003 496.01 96.3254C501.407 87.3581 507.721 82.8745 514.953 82.8745C520.35 82.8745 525.261 86.2011 529.686 92.8542C534.219 99.218 537.295 107.173 538.915 116.719V89.383H553V292.447C553 311.539 551.597 327.882 548.791 341.478C545.984 355.363 541.883 365.921 536.486 373.153C531.197 380.384 524.721 384 517.058 384ZM516.734 259.905C523.642 259.905 529.146 253.397 533.248 240.38C537.457 227.363 539.562 210.151 539.562 188.746C539.562 167.051 537.457 149.695 533.248 136.678C529.038 123.661 523.534 117.152 516.734 117.152C509.826 117.152 504.267 123.661 500.058 136.678C495.956 149.695 493.905 167.051 493.905 188.746C493.905 210.151 496.01 227.363 500.22 240.38C504.429 253.397 509.934 259.905 516.734 259.905Z" fill="black"/>
<path d="M394.359 305.898V89.383H408.444V117.586C409.74 107.751 412.6 99.5073 417.025 92.8542C421.559 86.2011 426.631 82.8745 432.244 82.8745C441.635 82.8745 448.812 90.2508 453.777 105.003C458.742 119.467 461.225 140.294 461.225 167.485V305.898H446.815V172.691C446.815 155.625 445.25 142.319 442.12 132.773C439.098 123.227 434.619 118.454 428.682 118.454C422.638 118.454 417.781 124.095 414.111 135.376C410.549 146.368 408.768 161.265 408.768 180.068V305.898H394.359Z" fill="black"/>
<path d="M357.835 305.898V89.3831H372.245V305.898H357.835ZM357.674 61.6136V0H372.407V61.6136H357.674Z" fill="black"/>
<path d="M303.92 305.898V89.383H318.006V121.925C318.87 113.247 320.542 106.016 323.025 100.23C325.615 94.4451 328.584 90.1061 331.93 87.2135C335.384 84.3208 338.838 82.8745 342.292 82.8745C342.507 82.8745 342.723 82.8745 342.939 82.8745C343.263 82.8745 343.533 82.8745 343.749 82.8745V121.491C343.533 121.491 343.263 121.491 342.939 121.491C342.723 121.491 342.507 121.491 342.292 121.491C337.866 121.491 333.819 123.95 330.149 128.868C326.587 133.785 323.727 141.595 321.568 152.298C319.409 162.712 318.33 176.597 318.33 193.952V305.898H303.92Z" fill="black"/>
<path d="M249.331 312.407C243.826 312.407 238.699 308.936 233.95 301.993C229.309 295.051 226.233 286.228 224.722 275.525V305.898H210.636V0H225.046V119.322C226.557 108.619 229.633 99.9413 234.274 93.2882C239.023 86.3458 244.042 82.8746 249.331 82.8746C256.779 82.8746 263.255 87.6475 268.76 97.1932C274.264 106.45 278.528 119.756 281.55 137.112C284.572 154.179 286.083 174.283 286.083 197.424C286.083 220.565 284.572 240.814 281.55 258.17C278.528 275.236 274.264 288.542 268.76 298.088C263.255 307.634 256.779 312.407 249.331 312.407ZM247.55 277.261C252.299 277.261 256.455 274.079 260.017 267.715C263.579 261.062 266.277 251.806 268.112 239.946C270.055 228.086 271.026 213.912 271.026 197.424C271.026 172.547 268.867 153.166 264.55 139.281C260.341 125.107 254.674 118.02 247.55 118.02C240.319 118.02 234.598 125.107 230.388 139.281C226.179 153.166 224.074 172.547 224.074 197.424C224.074 213.912 224.992 228.086 226.827 239.946C228.769 251.806 231.522 261.062 235.084 267.715C238.646 274.079 242.801 277.261 247.55 277.261Z" fill="black"/>
<path d="M157.988 312.407C150.109 312.407 143.255 307.634 137.427 298.088C131.706 288.542 127.281 275.091 124.151 257.736C121.128 240.38 119.617 220.42 119.617 197.858C119.617 175.006 121.182 155.046 124.313 137.98C127.551 120.624 131.976 107.173 137.589 97.6271C143.309 87.792 149.839 82.8745 157.179 82.8745C164.087 82.8745 170.239 87.2135 175.636 95.8915C181.033 104.569 185.242 116.863 188.264 132.773C191.394 148.682 192.96 167.485 192.96 189.18C192.96 192.362 192.906 195.688 192.798 199.159C192.69 202.341 192.582 204.655 192.474 206.102H125.446V176.597H182.598L178.55 182.671C178.55 167.919 177.579 155.625 175.636 145.79C173.693 135.955 171.103 128.578 167.865 123.661C164.734 118.454 161.173 115.851 157.179 115.851C152.754 115.851 148.814 118.888 145.36 124.963C142.014 130.748 139.37 138.558 137.427 148.393C135.484 158.228 134.512 169.076 134.512 180.936V202.63C134.512 226.061 136.563 244.574 140.665 258.169C144.766 271.765 150.649 278.563 158.312 278.563C163.061 278.563 167.379 274.947 171.264 267.715C175.15 260.194 177.795 249.636 179.198 236.041L192.15 246.888C189.991 268.004 185.836 284.203 179.683 295.485C173.639 306.766 166.407 312.407 157.988 312.407Z" fill="black"/>
<path d="M25.4188 305.898L0 89.3829H15.7046L32.3807 250.793L49.2186 89.3829H62.6566L79.4946 250.793L96.1706 89.3829H111.875L86.4564 305.898H72.8565L55.8567 144.922L39.0187 305.898H25.4188Z" fill="black"/>
</svg>